<svg xmlns="http://www.w3.org/2000/svg" width="316.22" height="35" viewBox="0 0 316.22 35"><rect class="svg__rect" x="0" y="0" width="144.06" height="35" fill="#8E2827"/><rect class="svg__rect" x="142.06" y="0" width="174.16" height="35" fill="#005384"/><path class="svg__text" d="M16.67 22L14.22 22L14.22 13.47L16.74 13.47Q17.87 13.47 18.74 13.97Q19.62 14.48 20.10 15.40Q20.58 16.33 20.58 17.52L20.58 17.52L20.58 17.95Q20.58 19.16 20.10 20.08Q19.61 21.00 18.72 21.50Q17.83 22 16.67 22L16.67 22ZM15.70 14.66L15.70 20.82L16.67 20.82Q17.83 20.82 18.46 20.09Q19.08 19.36 19.09 17.99L19.09 17.99L19.09 17.52Q19.09 16.13 18.49 15.40Q17.89 14.66 16.74 14.66L16.74 14.66L15.70 14.66ZM30.62 22L25.05 22L25.05 13.47L30.58 13.47L30.58 14.66L26.53 14.66L26.53 17.02L30.03 17.02L30.03 18.19L26.53 18.19L26.53 20.82L30.62 20.82L30.62 22ZM37.12 22L34.06 13.47L35.68 13.47L37.82 20.14L39.99 13.47L41.62 13.47L38.55 22L37.12 22ZM51.15 22L45.57 22L45.57 13.47L51.11 13.47L51.11 14.66L47.05 14.66L47.05 17.02L50.56 17.02L50.56 18.19L47.05 18.19L47.05 20.82L51.15 20.82L51.15 22ZM60.70 22L55.34 22L55.34 13.47L56.83 13.47L56.83 20.82L60.70 20.82L60.70 22ZM64.56 18.00L64.56 18.00L64.56 17.52Q64.56 16.28 65.00 15.32Q65.44 14.37 66.25 13.86Q67.05 13.35 68.09 13.35Q69.14 13.35 69.94 13.85Q70.75 14.35 71.19 15.29Q71.63 16.23 71.63 17.48L71.63 17.48L71.63 17.96Q71.63 19.21 71.20 20.16Q70.77 21.10 69.96 21.61Q69.15 22.12 68.11 22.12L68.11 22.12Q67.07 22.12 66.26 21.61Q65.45 21.10 65.00 20.17Q64.56 19.23 64.56 18.00ZM66.04 17.46L66.04 17.96Q66.04 19.36 66.59 20.13Q67.13 20.90 68.11 20.90L68.11 20.90Q69.09 20.90 69.62 20.15Q70.15 19.40 70.15 17.96L70.15 17.96L70.15 17.51Q70.15 16.09 69.61 15.34Q69.08 14.58 68.09 14.58L68.09 14.58Q67.13 14.58 66.59 15.33Q66.05 16.09 66.04 17.46L66.04 17.46ZM77.58 22L76.10 22L76.10 13.47L79.36 13.47Q80.79 13.47 81.63 14.21Q82.47 14.96 82.47 16.18L82.47 16.18Q82.47 17.44 81.65 18.13Q80.83 18.83 79.34 18.83L79.34 18.83L77.58 18.83L77.58 22ZM77.58 14.66L77.58 17.64L79.36 17.64Q80.15 17.64 80.57 17.27Q80.98 16.90 80.98 16.19L80.98 16.19Q80.98 15.50 80.56 15.09Q80.14 14.68 79.40 14.66L79.40 14.66L77.58 14.66ZM92.33 22L86.76 22L86.76 13.47L92.29 13.47L92.29 14.66L88.24 14.66L88.24 17.02L91.74 17.02L91.74 18.19L88.24 18.19L88.24 20.82L92.33 20.82L92.33 22ZM98.98 22L96.53 22L96.53 13.47L99.05 13.47Q100.18 13.47 101.06 13.97Q101.93 14.48 102.41 15.40Q102.89 16.33 102.89 17.52L102.89 17.52L102.89 17.95Q102.89 19.16 102.41 20.08Q101.93 21.00 101.03 21.50Q100.14 22 98.98 22L98.98 22ZM98.01 14.66L98.01 20.82L98.98 20.82Q100.14 20.82 100.77 20.09Q101.39 19.36 101.40 17.99L101.40 17.99L101.40 17.52Q101.40 16.13 100.80 15.40Q100.20 14.66 99.05 14.66L99.05 14.66L98.01 14.66ZM116.45 22L113.33 22L113.33 13.47L116.26 13.47Q117.71 13.47 118.46 14.05Q119.22 14.63 119.22 15.78L119.22 15.78Q119.22 16.36 118.90 16.83Q118.58 17.30 117.97 17.56L117.97 17.56Q118.67 17.75 119.04 18.26Q119.42 18.78 119.42 19.51L119.42 19.51Q119.42 20.71 118.65 21.36Q117.88 22 116.45 22L116.45 22ZM114.82 18.15L114.82 20.82L116.46 20.82Q117.16 20.82 117.55 20.47Q117.95 20.13 117.95 19.51L117.95 19.51Q117.95 18.18 116.59 18.15L116.59 18.15L114.82 18.15ZM114.82 14.66L114.82 17.06L116.27 17.06Q116.96 17.06 117.35 16.75Q117.74 16.43 117.74 15.86L117.74 15.86Q117.74 15.23 117.38 14.95Q117.02 14.66 116.26 14.66L116.26 14.66L114.82 14.66ZM125.93 18.86L123.07 13.47L124.71 13.47L126.68 17.51L128.64 13.47L130.28 13.47L127.42 18.86L127.42 22L125.93 22L125.93 18.86Z" fill="#FFFFFF"/><path class="svg__text" d="M155.66 21.24L155.66 21.24L156.44 19.49Q157.00 19.86 157.75 20.09Q158.49 20.32 159.21 20.32L159.21 20.32Q160.58 20.32 160.58 19.64L160.58 19.64Q160.58 19.28 160.19 19.11Q159.80 18.93 158.94 18.74L158.94 18.74Q157.99 18.53 157.35 18.30Q156.72 18.06 156.26 17.55Q155.81 17.03 155.81 16.16L155.81 16.16Q155.81 15.39 156.23 14.77Q156.65 14.15 157.48 13.79Q158.32 13.43 159.52 13.43L159.52 13.43Q160.35 13.43 161.16 13.62Q161.96 13.80 162.58 14.17L162.58 14.17L161.84 15.93Q160.64 15.28 159.51 15.28L159.51 15.28Q158.80 15.28 158.48 15.49Q158.16 15.70 158.16 16.04L158.16 16.04Q158.16 16.37 158.54 16.54Q158.93 16.71 159.78 16.89L159.78 16.89Q160.74 17.10 161.37 17.33Q162.00 17.56 162.46 18.07Q162.92 18.58 162.92 19.46L162.92 19.46Q162.92 20.21 162.50 20.83Q162.08 21.44 161.24 21.80Q160.40 22.17 159.20 22.17L159.20 22.17Q158.18 22.17 157.22 21.92Q156.26 21.67 155.66 21.24ZM169.88 22L167.50 22L167.50 13.60L169.88 13.60L169.88 16.76L173.12 16.76L173.12 13.60L175.49 13.60L175.49 22L173.12 22L173.12 18.72L169.88 18.72L169.88 22ZM180.58 18.26L180.58 18.26L180.58 13.60L182.96 13.60L182.96 18.19Q182.96 20.20 184.55 20.20L184.55 20.20Q186.14 20.20 186.14 18.19L186.14 18.19L186.14 13.60L188.48 13.60L188.48 18.26Q188.48 20.13 187.44 21.15Q186.40 22.17 184.53 22.17L184.53 22.17Q182.66 22.17 181.62 21.15Q180.58 20.13 180.58 18.26ZM196.15 22L192.56 13.60L195.13 13.60L197.41 19.07L199.74 13.60L202.09 13.60L198.49 22L196.15 22ZM205.81 17.80L205.81 17.80Q205.81 16.55 206.42 15.55Q207.02 14.56 208.08 14.00Q209.15 13.43 210.48 13.43L210.48 13.43Q211.81 13.43 212.87 14.00Q213.93 14.56 214.54 15.55Q215.15 16.55 215.15 17.80L215.15 17.80Q215.15 19.05 214.54 20.04Q213.93 21.04 212.87 21.60Q211.81 22.17 210.48 22.17L210.48 22.17Q209.15 22.17 208.08 21.60Q207.02 21.04 206.42 20.04Q205.81 19.05 205.81 17.80ZM208.21 17.80L208.21 17.80Q208.21 18.51 208.51 19.05Q208.81 19.60 209.33 19.90Q209.84 20.20 210.48 20.20L210.48 20.20Q211.12 20.20 211.63 19.90Q212.15 19.60 212.45 19.05Q212.74 18.51 212.74 17.80L212.74 17.80Q212.74 17.09 212.45 16.54Q212.15 16 211.63 15.70Q211.12 15.40 210.48 15.40L210.48 15.40Q209.84 15.40 209.33 15.70Q208.81 16 208.51 16.54Q208.21 17.09 208.21 17.80ZM219.29 21.24L219.29 21.24L220.07 19.49Q220.63 19.86 221.37 20.09Q222.12 20.32 222.84 20.32L222.84 20.32Q224.20 20.32 224.21 19.64L224.21 19.64Q224.21 19.28 223.82 19.11Q223.43 18.93 222.56 18.74L222.56 18.74Q221.62 18.53 220.98 18.30Q220.34 18.06 219.89 17.55Q219.44 17.03 219.44 16.16L219.44 16.16Q219.44 15.39 219.85 14.77Q220.27 14.15 221.11 13.79Q221.94 13.43 223.15 13.43L223.15 13.43Q223.98 13.43 224.78 13.62Q225.59 13.80 226.20 14.17L226.20 14.17L225.47 15.93Q224.27 15.28 223.14 15.28L223.14 15.28Q222.43 15.28 222.11 15.49Q221.78 15.70 221.78 16.04L221.78 16.04Q221.78 16.37 222.17 16.54Q222.55 16.71 223.40 16.89L223.40 16.89Q224.36 17.10 224.99 17.33Q225.62 17.56 226.09 18.07Q226.55 18.58 226.55 19.46L226.55 19.46Q226.55 20.21 226.13 20.83Q225.71 21.44 224.87 21.80Q224.03 22.17 222.83 22.17L222.83 22.17Q221.81 22.17 220.85 21.92Q219.89 21.67 219.29 21.24ZM232.54 22L230.12 22L233.83 13.60L236.17 13.60L239.88 22L237.42 22L236.76 20.37L233.20 20.37L232.54 22ZM234.98 15.93L233.90 18.61L236.06 18.61L234.98 15.93ZM246.42 22L244.04 22L244.04 13.60L246.42 13.60L246.42 16.76L249.66 16.76L249.66 13.60L252.03 13.60L252.03 22L249.66 22L249.66 18.72L246.42 18.72L246.42 22ZM258.61 22L256.19 22L259.89 13.60L262.24 13.60L265.95 22L263.49 22L262.82 20.37L259.27 20.37L258.61 22ZM261.05 15.93L259.96 18.61L262.13 18.61L261.05 15.93ZM272.49 22L270.11 22L270.11 13.60L273.95 13.60Q275.09 13.60 275.93 13.98Q276.77 14.35 277.23 15.06Q277.68 15.76 277.68 16.71L277.68 16.71Q277.68 17.62 277.26 18.30Q276.83 18.98 276.04 19.36L276.04 19.36L277.85 22L275.30 22L273.78 19.77L272.49 19.77L272.49 22ZM272.49 15.47L272.49 17.93L273.80 17.93Q274.54 17.93 274.91 17.61Q275.28 17.29 275.28 16.71L275.28 16.71Q275.28 16.12 274.91 15.79Q274.54 15.47 273.80 15.47L273.80 15.47L272.49 15.47ZM282.04 17.80L282.04 17.80Q282.04 16.55 282.65 15.55Q283.25 14.56 284.31 14.00Q285.38 13.43 286.71 13.43L286.71 13.43Q288.04 13.43 289.10 14.00Q290.16 14.56 290.77 15.55Q291.38 16.55 291.38 17.80L291.38 17.80Q291.38 19.05 290.77 20.04Q290.16 21.04 289.10 21.60Q288.04 22.17 286.71 22.17L286.71 22.17Q285.38 22.17 284.31 21.60Q283.25 21.04 282.65 20.04Q282.04 19.05 282.04 17.80ZM284.44 17.80L284.44 17.80Q284.44 18.51 284.74 19.05Q285.04 19.60 285.56 19.90Q286.07 20.20 286.71 20.20L286.71 20.20Q287.35 20.20 287.86 19.90Q288.38 19.60 288.68 19.05Q288.97 18.51 288.97 17.80L288.97 17.80Q288.97 17.09 288.68 16.54Q288.38 16 287.86 15.70Q287.35 15.40 286.71 15.40L286.71 15.40Q286.07 15.40 285.56 15.70Q285.04 16 284.74 16.54Q284.44 17.09 284.44 17.80ZM298.23 18.95L295.03 13.60L297.54 13.60L299.53 16.94L301.52 13.60L303.82 13.60L300.61 18.99L300.61 22L298.23 22L298.23 18.95Z" fill="#FFFFFF" x="155.06"/></svg>